<svg version="1.0" xmlns="http://www.w3.org/2000/svg" width="800.000000" height="800.000000" viewBox="0 0 800.000000 800.000000" preserveAspectRatio="xMidYMid meet">
  <metadata>
    <rdf:RDF xmlns:rdf="http://www.w3.org/1999/02/22-rdf-syntax-ns#" xmlns:rdfs="http://www.w3.org/2000/01/rdf-schema#" xmlns:dc="http://purl.org/dc/elements/1.1/">
      <rdf:Description dc:format="image/svg+xml" dc:Label="1" dc:ContentProducer="001191330110MACRLGPT8B00000" dc:ProduceID="349356833" dc:ReservedCode1="79QARywYftzJIN4RJaTQWAG7CAui++Y+uU/QpUpR2zg=" dc:ContentPropagator="001191330110MACRLGPT8B00000" dc:PropagateID="349356833" dc:ReservedCode2="79QARywYftzJIN4RJaTQWAG7CAui++Y+uU/QpUpR2zg="/>
    </rdf:RDF>
  </metadata>
  <g transform="translate(0.000000,800.000000) scale(0.100000,-0.100000)" fill="#FFFFFF" stroke="none">
    <path d="M4675 6270 c-1693 -356 -2193 -463 -2217 -478 -51 -30 -58 -62 -58 -257 0 -165 -1 -177 -17 -170 -10 4 -43 10 -74 12 -110 10 -204 -56 -235 -163 -14 -49 -14 -63 -2 -112 l13 -57 -38 -54 c-48 -70 -67 -135 -67 -231 0 -90 18 -157 60 -224 l31 -49 -35 -66 c-63 -121 -71 -251 -23 -371 l24 -58 -24 -38 c-88 -146 -84 -390 9 -528 25 -36 25 -40 12 -72 -19 -46 -17 -131 5 -179 24 -53 85 -111 138 -131 42 -16 157 -16 195 0 15 7 16 -19 11 -346 l-5 -353 95 -155 c162 -266 145 -245 197 -244 25 1 106 13 180 27 74 14 136 24 139 22 2 -3 7 -38 11 -77 7 -83 20 -110 67 -132 31 -15 46 -13 290 30 319 55 728 126 1148 198 176 30 491 85 700 121 209 36 472 82 583 101 112 19 215 37 228 40 28 7 72 56 79 87 3 12 16 461 30 997 14 536 32 1229 40 1539 21 782 20 852 -5 884 -38 48 -68 50 -285 22 -108 -14 -201 -25 -206 -25 -5 0 -9 51 -9 113 0 123 -7 145 -60 172 -27 14 -43 13 -181 -10 -84 -14 -155 -23 -157 -20 -3 2 -7 60 -9 127 -2 68 -10 134 -16 146 -15 31 -57 52 -104 51 -21 0 -227 -40 -458 -89z m507 23 c14 -16 17 -137 26 -1033 8 -900 8 -1018 -6 -1039 -25 -41 -360 -397 -518 -551 -224 -218 -442 -394 -659 -531 -312 -196 -998 -456 -1449 -549 -54 -11 -107 -20 -117 -20 -18 0 -19 12 -19 269 0 217 3 271 14 280 8 6 24 35 36 63 19 44 22 65 18 143 -3 77 -8 98 -31 137 -27 46 -27 48 -27 241 0 169 2 196 17 208 52 43 87 213 80 388 -6 148 -16 189 -63 240 l-34 38 0 168 0 167 39 44 c81 93 82 218 1 326 l-40 52 0 186 c0 209 4 222 68 239 20 5 199 44 397 85 198 42 520 109 715 150 195 41 582 122 860 181 278 58 532 112 565 119 82 19 109 19 127 -1z m412 -289 c19 -19 20 -80 6 -924 -5 -322 -14 -943 -21 -1380 -12 -851 -11 -828 -62 -851 -12 -5 -465 -83 -1007 -174 -542 -91 -1223 -205 -1515 -254 -368 -62 -535 -86 -547 -80 -15 8 -18 24 -18 89 0 75 1 80 23 84 12 3 69 14 127 26 249 50 459 114 815 247 452 170 666 288 986 545 135 108 473 416 481 438 2 5 44 51 93 102 138 142 291 310 304 335 8 16 9 244 4 895 l-6 874 124 21 c156 26 193 27 213 7z m521 -254 c19 -21 16 -220 -35 -2070 -5 -184 -14 -551 -21 -815 -12 -510 -15 -529 -62 -540 -12 -3 -182 -32 -377 -65 -195 -33 -537 -92 -760 -130 -223 -39 -511 -88 -640 -111 -129 -22 -426 -74 -660 -115 -234 -41 -438 -74 -453 -74 -42 0 -59 35 -55 116 l3 68 305 52 c168 29 494 84 725 124 231 39 508 86 615 105 107 19 409 70 670 115 564 96 512 85 527 108 9 15 14 306 22 1128 6 610 13 1278 15 1486 5 371 5 377 -16 403 -20 26 -23 27 -102 21 -45 -4 -98 -9 -118 -12 l-38 -6 0 94 0 95 168 20 c227 28 264 28 287 3z m-238 -282 c-3 -8 -6 -5 -6 6 -1 11 2 17 5 13 3 -3 4 -12 1 -19z m13 -38 c0 -11 -4 -20 -10 -20 -5 0 -10 9 -10 20 0 11 5 20 10 20 6 0 10 -9 10 -20z m-3517 -119 c27 -10 27 -12 27 -96 0 -83 -1 -86 -21 -80 -54 17 -207 -7 -224 -36 -4 -5 -13 -9 -21 -9 -20 0 -19 102 2 146 37 78 144 112 237 75z m107 -113 c19 -43 26 -99 13 -111 -3 -4 -15 0 -25 10 -14 12 -18 31 -18 80 0 34 2 63 5 63 4 0 15 -19 25 -42z m-99 -118 c15 -9 19 -22 19 -64 0 -47 -3 -54 -22 -60 -39 -10 -94 -7 -130 8 -41 17 -90 64 -82 78 23 37 169 62 215 38z m81 -72 c-9 -9 -12 -7 -12 12 0 19 3 21 12 12 9 -9 9 -15 0 -24z m-299 -53 c52 -44 96 -58 175 -53 l62 3 0 -145 0 -146 -77 1 c-65 0 -86 -5 -129 -27 -27 -15 -56 -34 -63 -42 -8 -9 -17 -16 -22 -16 -4 0 -23 30 -41 67 -30 62 -33 75 -33 163 0 78 4 104 23 145 21 45 49 85 59 85 3 0 23 -16 46 -35z m225 -407 c7 -6 12 -33 12 -64 0 -49 -2 -54 -26 -60 -48 -12 -142 3 -189 30 -25 15 -45 29 -45 31 0 12 94 66 126 73 44 9 104 4 122 -10z m77 -78 c3 -5 1 -10 -4 -10 -6 0 -11 5 -11 10 0 6 2 10 4 10 3 0 8 -4 11 -10z m-283 -69 c61 -30 74 -32 143 -29 l75 3 0 -144 0 -143 -22 7 c-113 34 -170 30 -251 -19 l-55 -33 -11 23 c-22 49 -32 154 -21 213 11 56 59 164 69 158 3 -1 36 -18 73 -36z m317 -96 c1 -90 -16 -229 -34 -269 -12 -28 -13 -10 -14 166 -1 178 1 198 17 207 22 13 30 -11 31 -104z m-144 -263 c38 -19 41 -23 44 -77 2 -51 -17 -70 -85 -81 -51 -8 -104 8 -161 49 -56 39 -61 56 -26 85 62 50 158 60 228 24z m-175 -188 c38 -19 142 -25 194 -11 24 7 28 5 22 -8 -3 -9 -6 -79 -6 -155 l0 -138 -42 15 c-70 24 -169 -3 -242 -67 -23 -21 -41 -29 -47 -23 -19 19 -51 131 -56 198 -6 78 6 152 38 226 l21 48 42 -33 c22 -18 57 -42 76 -52z m184 -354 c23 -8 26 -15 26 -55 0 -25 -2 -45 -5 -45 -3 0 -25 10 -48 22 -34 18 -58 23 -124 23 -90 0 -92 5 -18 44 43 23 125 28 169 11z m-54 -127 c29 -16 53 -32 53 -38 -2 -20 -74 -36 -124 -27 -45 9 -119 48 -119 64 0 8 72 25 111 27 14 1 50 -11 79 -26z m149 -85 c-1 -42 -1 -42 -10 -13 -5 17 -7 36 -4 43 9 24 15 11 14 -30z m-328 8 c86 -48 155 -54 243 -20 14 5 16 -4 16 -75 0 -75 -2 -82 -26 -97 -33 -22 -113 -29 -159 -14 -57 19 -103 65 -120 122 -11 39 -12 108 0 108 1 0 22 -11 46 -24z m3539 -482 c0 -8 -5 -12 -10 -9 -6 4 -8 11 -5 16 9 14 15 11 15 -7z m-64 -81 c-11 -11 -19 6 -11 24 8 17 8 17 12 0 3 -10 2 -21 -1 -24z m162 -39 c-4 -41 -38 -46 -38 -7 0 32 19 58 33 44 5 -5 7 -21 5 -37z m-111 -56 c-3 -8 -6 -5 -6 6 -1 11 2 17 5 13 3 -3 4 -12 1 -19z m-2921 -475 c-2 -2 -15 1 -30 6 -38 15 -32 5 12 -18 20 -11 31 -20 24 -21 -7 0 -11 -4 -8 -9 7 -11 100 -28 200 -37 50 -4 73 -10 64 -15 -8 -5 -86 -22 -173 -39 -116 -23 -161 -28 -169 -20 -6 6 -12 60 -14 127 l-4 116 51 -43 c28 -24 49 -45 47 -47z"/>
    <path d="M4963 6150 c-31 -13 -29 -38 4 -51 52 -20 100 26 54 51 -23 12 -28 12 -58 0z"/>
    <path d="M4764 5978 c-11 -18 25 -39 47 -27 23 12 24 25 3 33 -24 9 -42 7 -50 -6z"/>
    <path d="M3905 5181 c-37 -5 -103 -36 -260 -120 -115 -63 -216 -118 -222 -124 -18 -13 -16 -65 3 -143 24 -92 36 -93 185 -15 l117 61 6 -212 c4 -117 11 -374 16 -570 4 -196 11 -362 15 -367 9 -16 41 -14 187 14 152 30 171 42 163 104 -3 20 -12 225 -20 456 -28 784 -34 888 -52 907 -17 19 -46 21 -138 9z m-38 -1245 c32 -40 32 -41 10 -46 -20 -5 -16 -10 33 -49 30 -24 65 -48 78 -54 12 -6 22 -13 22 -16 0 -6 -182 -43 -187 -38 -1 2 -5 66 -8 142 -5 116 -4 137 7 121 7 -10 28 -37 45 -60z"/>
    <path d="M4680 3858 c-19 -11 -77 -48 -129 -82 -87 -56 -92 -61 -67 -66 l27 -5 -29 -45 c-16 -25 -64 -85 -107 -133 -42 -48 -75 -90 -73 -93 8 -8 161 121 228 192 73 77 200 234 200 246 0 13 -12 9 -50 -14z"/>
    <path d="M2577 3284 c-4 -4 -7 -144 -7 -312 0 -285 1 -304 18 -299 34 10 499 175 612 217 125 46 215 88 207 97 -3 3 -61 0 -129 -7 -209 -20 -545 -10 -483 15 11 4 45 19 75 33 l55 25 -75 8 c-78 8 -194 44 -185 58 2 5 19 11 37 15 l33 7 -40 34 c-22 19 -56 52 -76 75 -19 22 -38 37 -42 34z"/>
    <path d="M5371 5821 c-24 -45 -1 -93 26 -55 16 22 14 66 -4 71 -6 2 -16 -5 -22 -16z"/>
    <path d="M5480 5771 c-25 -48 1 -121 31 -85 13 16 16 74 4 93 -10 17 -23 13 -35 -8z"/>
    <path d="M5396 3498 c-67 -135 -176 -246 -296 -301 -54 -25 -36 -33 42 -19 l53 10 -40 -35 c-70 -62 -265 -185 -430 -270 -88 -45 -152 -83 -143 -83 15 0 717 134 828 158 l35 8 3 302 c1 181 -1 302 -7 302 -5 0 -25 -33 -45 -72z"/>
  </g>
</svg>