<svg version="1.0" xmlns="http://www.w3.org/2000/svg" width="800.000000" height="800.000000" viewBox="0 0 800.000000 800.000000" preserveAspectRatio="xMidYMid meet">
  <metadata>
    <rdf:RDF xmlns:rdf="http://www.w3.org/1999/02/22-rdf-syntax-ns#" xmlns:rdfs="http://www.w3.org/2000/01/rdf-schema#" xmlns:dc="http://purl.org/dc/elements/1.1/">
      <rdf:Description dc:format="image/svg+xml" dc:Label="1" dc:ContentProducer="001191330110MACRLGPT8B00000" dc:ProduceID="349356832" dc:ReservedCode1="m2ZdV3LkxJj8fdWSJ5s10F7s+Vidp3lRBejMrXjLOco=" dc:ContentPropagator="001191330110MACRLGPT8B00000" dc:PropagateID="349356832" dc:ReservedCode2="m2ZdV3LkxJj8fdWSJ5s10F7s+Vidp3lRBejMrXjLOco="/>
    </rdf:RDF>
  </metadata>
  <g transform="translate(0.000000,800.000000) scale(0.100000,-0.100000)" fill="#FFFFFF" stroke="none">
    <path d="M4790 6470 c-140 -15 -468 -49 -728 -75 l-473 -48 -42 41 c-33 33 -50 42 -76 42 -19 0 -172 -14 -340 -31 -328 -33 -338 -35 -372 -94 -23 -38 -11 -35 -274 -61 -189 -18 -232 -33 -272 -93 -43 -64 -43 -80 23 -635 14 -115 23 -215 20 -223 -3 -7 -14 -13 -25 -13 -33 0 -129 -40 -161 -67 -31 -26 -38 -59 -20 -93 14 -25 99 -50 171 -50 32 0 60 -4 64 -9 8 -13 86 -694 81 -707 -2 -6 -22 -14 -44 -18 -97 -15 -182 -73 -182 -124 0 -58 69 -92 186 -92 l72 0 6 -37 c20 -134 76 -645 71 -653 -3 -6 -17 -10 -30 -10 -37 0 -132 -38 -165 -67 -22 -18 -30 -33 -30 -57 0 -57 55 -84 181 -90 53 -3 75 -8 76 -17 2 -8 18 -151 38 -319 19 -168 37 -317 40 -332 4 -25 1 -27 -47 -37 -112 -25 -188 -74 -188 -122 0 -57 71 -89 194 -89 60 0 66 -2 71 -22 3 -13 21 -161 40 -330 19 -169 39 -317 45 -330 25 -61 83 -98 154 -98 24 0 226 22 448 49 222 28 725 89 1118 136 650 78 1179 144 1431 179 52 7 105 18 116 25 31 16 70 67 77 98 6 25 -40 430 -189 1683 -24 206 -81 688 -125 1070 -169 1453 -179 1528 -193 1557 -31 59 -95 93 -179 93 -48 0 -55 3 -70 29 -9 17 -35 39 -57 50 -53 27 -113 26 -441 -9z m442 -57 l31 -32 58 -463 c64 -510 314 -2529 410 -3308 77 -631 75 -600 56 -636 -31 -60 -39 -62 -283 -93 -260 -34 -751 -93 -1479 -181 -275 -33 -630 -76 -790 -96 -159 -21 -322 -38 -362 -38 -62 -1 -75 2 -97 23 -14 13 -27 35 -31 50 -4 22 -53 431 -71 601 l-6 56 60 12 c58 12 62 12 98 -13 76 -52 173 -24 214 61 51 104 -25 224 -141 224 -44 0 -103 -29 -113 -56 -5 -12 -20 -15 -72 -12 -36 1 -68 6 -70 10 -10 15 -84 682 -77 688 4 3 32 12 60 19 49 12 55 11 88 -9 29 -18 47 -22 91 -18 170 14 183 251 16 298 -50 13 -104 -3 -139 -43 -26 -30 -31 -32 -86 -29 -49 3 -58 7 -62 25 -3 12 -19 137 -35 277 -16 140 -34 286 -38 323 -6 48 -5 70 2 72 6 2 33 10 60 19 47 15 52 15 94 -5 76 -37 156 -12 195 62 25 46 19 125 -13 169 -56 79 -183 80 -238 3 -18 -26 -24 -28 -77 -25 -31 2 -58 9 -60 15 -2 7 -16 116 -30 242 -14 127 -32 282 -39 345 -8 63 -12 116 -11 118 2 2 28 9 59 16 53 13 58 12 106 -12 47 -23 54 -24 93 -12 90 27 137 122 102 205 -22 53 -40 71 -91 91 -58 22 -104 12 -150 -31 -33 -31 -43 -35 -90 -35 -47 0 -54 3 -59 23 -2 12 -18 139 -34 282 -61 525 -57 472 -36 511 34 63 36 63 359 99 170 18 206 19 206 3 1 -43 60 -579 65 -588 3 -5 10 -10 15 -10 5 0 62 44 127 97 65 53 123 101 130 106 11 8 163 -91 284 -185 42 -32 65 -36 73 -10 3 10 -5 135 -19 277 -14 143 -28 288 -32 322 l-6 61 54 6 c30 4 317 33 639 66 322 33 664 68 760 79 96 11 203 18 238 17 55 -2 66 -6 94 -33z m-1864 -130 c3 -22 -28 -40 -48 -28 -12 7 -13 38 -3 49 15 14 48 1 51 -21z m-34 -136 c28 -21 12 -59 -22 -55 -30 3 -41 30 -22 53 15 18 21 19 44 2z m-387 -162 c-2 -17 5 -21 43 -25 43 -5 44 -6 22 -18 -29 -17 -21 -28 29 -44 l40 -12 -36 -22 c-21 -12 -55 -39 -76 -60 -21 -21 -41 -35 -44 -32 -8 8 -21 110 -29 218 l-6 85 29 -35 c17 -19 29 -44 28 -55z m2523 -267 c21 -34 27 -112 11 -123 -16 -9 -50 44 -57 90 -10 71 13 87 46 33z m138 -337 c-4 -35 -35 -40 -49 -8 -8 18 -8 30 1 47 11 21 12 21 31 4 12 -11 19 -28 17 -43z m-128 -32 c0 -20 -15 -26 -25 -9 -9 15 3 43 15 35 5 -3 10 -15 10 -26z m-3065 -134 c1 -11 5 -30 9 -42 6 -19 3 -25 -19 -33 -47 -18 -75 -13 -75 14 0 13 -3 38 -6 55 l-7 32 48 -3 c40 -2 49 -6 50 -23z m-141 -22 c12 -73 12 -73 -51 -72 -61 1 -124 18 -130 36 -5 13 32 37 88 57 72 25 85 22 93 -21z m249 9 c15 -16 24 -31 20 -35 -12 -12 -51 -7 -67 8 -13 13 -13 20 -3 35 15 26 18 25 50 -8z m1 -913 c2 -2 7 -23 11 -46 l7 -42 -42 -11 c-24 -6 -46 -8 -50 -3 -4 4 -11 32 -14 62 l-7 54 46 -5 c25 -3 48 -7 49 -9z m-140 -30 c3 -17 6 -45 6 -62 l0 -30 -74 6 c-73 7 -126 22 -126 38 0 13 48 41 104 61 72 25 82 23 90 -13z m269 -17 c17 -18 17 -21 2 -36 -30 -30 -56 -16 -69 36 -10 44 27 44 67 0z m-27 -870 c6 -4 13 -23 17 -43 5 -36 5 -37 -36 -48 -23 -5 -45 -7 -48 -3 -4 4 -9 28 -13 55 l-6 47 38 0 c20 0 42 -4 48 -8z m-132 -39 c12 -73 12 -73 -51 -73 -63 0 -129 15 -139 31 -3 6 2 17 12 24 28 21 115 54 145 54 23 1 27 -4 33 -36z m231 8 c3 -11 12 -22 20 -25 21 -8 19 -26 -2 -26 -15 -1 -14 -4 6 -20 l23 -20 -25 0 c-32 0 -57 34 -57 77 0 37 24 46 35 14z m-130 -893 c2 -7 5 -34 8 -60 l5 -48 -62 1 c-68 1 -137 18 -143 36 -5 14 42 40 117 64 67 22 70 22 75 7z m157 -23 c0 -19 1 -40 2 -47 1 -11 -81 -35 -89 -26 -2 2 -7 27 -11 56 l-7 52 52 0 51 0 2 -35z m116 -7 c19 -19 15 -25 -19 -32 -39 -7 -49 -2 -42 24 6 22 42 27 61 8z m20 -84 c-8 -9 -24 -14 -34 -11 -17 3 -16 5 6 15 36 16 47 14 28 -4z"/>
    <path d="M4755 6125 c-30 -29 -32 -58 -5 -85 26 -26 81 -26 103 -2 25 27 22 78 -5 96 -32 23 -65 20 -93 -9z"/>
    <path d="M4990 6036 c0 -15 26 -46 39 -46 13 0 31 24 31 42 0 14 -8 18 -35 18 -24 0 -35 -5 -35 -14z"/>
    <path d="M4822 5898 c-23 -23 -7 -68 24 -68 14 0 44 27 44 40 0 13 -30 40 -44 40 -6 0 -17 -5 -24 -12z"/>
    <path d="M3700 5085 c-353 -79 -616 -338 -691 -680 -22 -99 -17 -295 9 -393 83 -309 306 -539 609 -628 99 -29 361 -50 493 -40 288 21 561 217 685 489 138 305 93 657 -117 916 -86 107 -243 214 -330 225 -18 2 -67 20 -109 39 -125 59 -207 78 -354 83 -90 2 -150 -1 -195 -11z m848 -268 c116 -88 220 -260 262 -432 19 -77 22 -108 17 -215 -6 -151 -29 -238 -95 -364 -57 -108 -154 -216 -255 -283 -70 -46 -207 -105 -277 -117 -29 -5 -24 -1 26 22 210 100 395 297 464 496 80 225 64 482 -43 691 -29 59 -101 158 -160 223 -49 53 -26 45 61 -21z m-538 -63 c113 -50 167 -146 158 -276 -9 -115 -51 -186 -305 -515 -34 -46 -63 -85 -63 -88 0 -4 8 -4 18 -1 9 3 108 19 219 36 213 33 230 32 253 -10 14 -26 13 -83 -3 -103 -10 -14 -65 -25 -267 -53 -140 -19 -297 -41 -349 -50 -108 -17 -121 -12 -121 45 0 46 58 147 178 307 187 252 252 365 252 442 0 88 -50 136 -140 136 -119 0 -177 -60 -189 -195 -8 -97 -26 -119 -96 -119 -63 0 -85 31 -85 118 0 181 100 308 272 347 91 21 193 13 268 -21z m-790 -136 c-67 -154 -85 -226 -55 -214 20 7 19 6 -10 -64 -14 -33 -30 -82 -36 -110 -6 -27 -14 -50 -19 -50 -5 0 -14 25 -21 56 -25 111 26 293 117 421 59 83 69 67 24 -39z"/>
    <path d="M4330 2919 c-300 -38 -555 -71 -567 -74 -25 -6 -30 -27 -10 -42 14 -11 1176 132 1191 147 18 18 -3 40 -36 39 -18 0 -278 -32 -578 -70z"/>
    <path d="M4380 2609 c-300 -32 -555 -61 -567 -64 -26 -6 -31 -33 -7 -42 9 -3 64 -1 122 5 638 66 983 102 1010 107 22 4 32 11 32 24 0 17 -21 33 -38 30 -4 -1 -252 -28 -552 -60z"/>
    <path d="M3052 2065 c-21 -24 -27 -25 -131 -25 -78 0 -112 -4 -120 -13 -8 -10 -4 -53 14 -163 23 -139 27 -151 55 -176 33 -30 51 -33 128 -18 28 5 187 25 353 45 294 35 344 45 336 68 -3 11 -240 66 -289 67 -31 0 -36 11 -13 30 26 21 17 27 -62 40 -102 16 -153 29 -153 38 0 20 43 52 69 52 15 0 52 7 82 17 l54 16 -85 13 c-47 7 -98 17 -113 23 -50 19 -101 14 -125 -14z m-65 -220 c48 1 58 -2 46 -10 -13 -10 -2 -13 53 -18 38 -4 103 -7 144 -7 92 -1 206 -23 174 -34 -38 -12 -187 -26 -286 -26 -164 0 -238 26 -238 86 0 22 3 24 23 17 12 -4 50 -8 84 -8z"/>
  </g>
</svg>