<svg version="1.0" xmlns="http://www.w3.org/2000/svg" width="800.000000" height="800.000000" viewBox="0 0 800.000000 800.000000" preserveAspectRatio="xMidYMid meet">
  <metadata>
    <rdf:RDF xmlns:rdf="http://www.w3.org/1999/02/22-rdf-syntax-ns#" xmlns:rdfs="http://www.w3.org/2000/01/rdf-schema#" xmlns:dc="http://purl.org/dc/elements/1.1/">
      <rdf:Description dc:format="image/svg+xml" dc:Label="1" dc:ContentProducer="001191330110MACRLGPT8B00000" dc:ProduceID="349357727" dc:ReservedCode1="uAjCAK4ZIu1GFTgmNUQiwrS8BwTUZOplei76T7ccbgI=" dc:ContentPropagator="001191330110MACRLGPT8B00000" dc:PropagateID="349357727" dc:ReservedCode2="uAjCAK4ZIu1GFTgmNUQiwrS8BwTUZOplei76T7ccbgI="/>
    </rdf:RDF>
  </metadata>
  <g transform="translate(0.000000,800.000000) scale(0.100000,-0.100000)" fill="#FFFFFF" stroke="none">
    <path d="M4601 6500 c-63 -11 -187 -26 -275 -35 -89 -9 -334 -43 -546 -76 -212 -33 -536 -82 -720 -110 -904 -135 -1064 -161 -1090 -174 -26 -13 -60 -68 -60 -97 0 -7 12 -53 26 -101 17 -59 23 -92 16 -99 -5 -5 -55 -16 -110 -24 -122 -17 -142 -24 -174 -63 -35 -41 -43 -96 -22 -152 55 -147 163 -465 199 -586 l42 -143 -51 0 c-124 -1 -203 -90 -182 -205 8 -43 59 -103 103 -121 42 -18 130 -18 180 0 l39 14 53 -159 c36 -110 57 -159 67 -159 8 0 67 13 131 30 142 37 153 37 153 6 0 -27 -16 -36 -63 -36 -18 0 -72 -11 -121 -25 -49 -13 -99 -22 -111 -19 -23 6 -281 -68 -298 -85 -13 -13 -1 -41 17 -41 8 0 76 20 153 45 76 24 140 41 144 37 16 -19 93 -243 124 -362 59 -222 75 -271 90 -276 8 -4 66 12 128 35 138 49 161 53 165 26 2 -17 -15 -26 -135 -64 -76 -24 -149 -45 -163 -47 -14 -1 -77 -20 -140 -41 -96 -32 -115 -41 -115 -58 0 -27 27 -25 150 14 55 17 105 31 112 31 6 0 35 -69 63 -152 55 -162 128 -394 133 -417 1 -8 -51 -35 -153 -76 -154 -62 -186 -83 -163 -106 10 -10 47 1 165 49 84 34 158 62 163 62 11 0 29 -46 112 -290 54 -161 104 -323 100 -326 -1 -1 -78 -19 -172 -41 -153 -35 -170 -41 -173 -61 -3 -19 1 -22 30 -22 30 0 277 58 321 75 14 6 17 1 17 -26 0 -19 16 -78 35 -133 19 -54 42 -134 50 -178 31 -162 75 -214 180 -212 33 1 146 18 250 38 319 62 651 122 1065 191 463 77 700 119 790 139 123 28 336 66 483 86 81 11 160 26 175 34 78 41 95 102 68 245 -9 46 -16 87 -16 91 0 10 45 25 122 40 137 27 173 131 100 290 -16 36 -46 119 -65 185 -53 176 -177 532 -235 670 -34 82 -62 172 -87 284 -39 171 -146 573 -188 701 -53 162 -78 254 -127 464 -65 281 -90 366 -140 479 -105 233 -133 306 -171 444 -40 148 -163 532 -180 565 -15 27 -64 48 -111 47 -24 -1 -94 -9 -157 -19z m207 -47 c21 -19 133 -339 173 -496 40 -159 63 -224 141 -402 103 -232 119 -283 178 -545 49 -218 87 -360 135 -500 34 -100 149 -528 186 -693 35 -158 49 -203 101 -326 48 -114 151 -408 219 -624 27 -86 60 -181 73 -211 50 -112 41 -184 -26 -205 -70 -22 -273 -62 -483 -96 -121 -20 -326 -56 -455 -80 -129 -24 -296 -54 -370 -65 -74 -12 -279 -57 -455 -100 -315 -77 -579 -124 -840 -150 -175 -18 -174 -18 -214 15 -25 22 -41 58 -100 238 -38 117 -79 250 -91 297 -12 47 -46 148 -75 225 -87 230 -201 602 -249 812 -14 61 -44 169 -65 240 -22 70 -60 200 -86 288 -25 88 -63 214 -85 280 -21 66 -61 197 -89 290 -27 94 -75 228 -105 297 -78 180 -175 557 -210 823 -8 61 -22 132 -31 159 -31 101 -15 139 65 151 19 2 127 19 240 35 113 17 293 44 400 60 107 16 301 46 430 65 129 20 408 62 620 95 212 33 486 71 610 85 124 14 263 32 310 39 115 19 125 19 148 -1z m-2652 -1654 c7 -12 -15 -31 -31 -26 -5 2 -11 11 -13 20 -4 19 32 24 44 6z m-274 -18 c18 -7 29 -28 51 -93 15 -46 27 -91 27 -100 0 -11 -16 -20 -51 -28 -59 -14 -119 -9 -155 15 -34 22 -57 79 -50 120 6 31 46 77 76 88 24 9 77 8 102 -2z m187 -80 c7 -5 11 -13 7 -19 -8 -14 -42 -21 -57 -12 -10 7 -10 11 0 24 15 18 29 20 50 7z m3537 -2496 c7 -30 1 -40 -21 -32 -20 8 -20 57 0 57 8 0 17 -11 21 -25z m-418 -227 c-2 -17 -11 -24 -30 -26 -19 -2 -28 1 -28 10 0 20 21 38 43 38 13 0 18 -6 15 -22z m-2085 -184 c11 -11 -5 -34 -23 -34 -22 0 -34 15 -25 30 7 11 38 14 48 4z m172 -74 c3 -5 -1 -10 -9 -10 -9 0 -16 5 -16 10 0 6 4 10 9 10 6 0 13 -4 16 -10z m-164 -83 c-13 -13 -26 -3 -16 12 3 6 11 8 17 5 6 -4 6 -10 -1 -17z"/>
    <path d="M4765 6241 c-6 -11 9 -23 19 -14 9 9 7 23 -3 23 -6 0 -12 -4 -16 -9z"/>
    <path d="M4660 6215 c-27 -33 17 -74 48 -43 16 16 15 23 -4 42 -19 20 -28 20 -44 1z"/>
    <path d="M4837 6083 c-21 -20 4 -93 32 -93 14 0 31 25 31 46 0 36 -43 68 -63 47z"/>
    <path d="M4669 6016 c-15 -33 12 -86 45 -86 42 0 48 49 11 85 -30 31 -43 31 -56 1z"/>
    <path d="M4030 5919 c-190 -43 -538 -122 -775 -174 -236 -53 -440 -103 -452 -111 -16 -10 -23 -24 -23 -48 0 -46 87 -367 104 -385 8 -7 27 -14 43 -14 15 -1 305 61 643 136 338 75 689 153 780 173 91 20 173 43 183 52 24 21 22 50 -17 192 -18 69 -36 139 -40 155 -12 55 -27 82 -52 94 -14 6 -30 11 -37 10 -7 -1 -167 -37 -357 -80z m325 -159 c0 -101 -1 -105 -22 -108 -23 -3 -23 -2 -23 101 0 107 3 120 30 115 12 -3 15 -21 15 -108z m-564 10 c10 -6 19 -20 19 -32 0 -17 -4 -20 -29 -15 -35 7 -44 -9 -35 -62 13 -72 46 -111 93 -111 13 0 40 25 75 69 44 55 64 72 102 85 26 9 59 16 74 16 81 0 196 -64 170 -95 -10 -12 -20 -10 -64 15 -37 21 -66 30 -98 30 -74 0 -105 -16 -147 -79 -43 -64 -94 -97 -133 -88 -97 25 -156 183 -93 251 26 29 37 31 66 16z m-157 -196 c7 -102 -2 -136 -30 -113 -19 16 -20 205 -1 212 21 8 24 0 31 -99z m-170 14 c36 -51 5 -160 -49 -174 -42 -10 -74 4 -100 46 -28 44 -36 46 -115 29 -63 -13 -80 -30 -80 -79 0 -44 -13 -58 -37 -39 -11 10 -14 25 -10 57 7 66 35 88 134 107 76 14 85 14 107 -1 14 -8 28 -24 31 -34 8 -26 40 -51 57 -45 17 7 38 47 38 74 0 10 -9 30 -20 44 -26 32 -25 37 4 37 14 0 32 -10 40 -22z m-526 -156 c28 -75 32 -95 22 -107 -17 -20 -36 -4 -45 36 -4 17 -17 56 -30 87 -24 59 -23 85 4 80 10 -2 28 -38 49 -96z"/>
    <path d="M3915 4954 c-154 -28 -343 -105 -463 -191 -88 -62 -258 -236 -301 -308 -81 -134 -141 -368 -141 -551 0 -263 75 -499 215 -679 82 -105 154 -172 259 -240 334 -218 696 -261 1079 -129 173 60 283 129 375 235 77 90 189 252 222 324 66 140 85 243 85 445 0 153 -3 186 -24 260 -52 189 -138 330 -292 482 -125 123 -202 180 -324 243 -218 111 -462 150 -690 109z m310 -44 c238 -35 429 -126 617 -297 170 -153 267 -300 324 -489 25 -81 27 -104 28 -259 1 -154 -2 -180 -26 -272 -14 -56 -40 -130 -57 -165 -40 -83 -203 -300 -273 -364 -94 -86 -264 -162 -457 -205 -252 -56 -494 -24 -736 96 -160 80 -249 148 -343 260 -96 115 -150 214 -190 350 -77 259 -66 511 34 761 39 98 88 165 200 275 111 108 154 139 269 196 200 101 416 140 610 113z"/>
    <path d="M3940 4629 c-183 -26 -371 -146 -452 -287 -27 -48 -33 -67 -33 -120 0 -59 2 -66 33 -93 22 -20 43 -29 67 -29 70 0 91 22 130 133 35 99 157 177 278 177 78 0 120 -15 161 -58 34 -36 45 -83 34 -137 -18 -81 -84 -132 -225 -175 -119 -36 -165 -81 -149 -146 7 -28 60 -64 95 -64 13 0 67 14 120 31 131 43 243 46 316 8 83 -42 116 -129 80 -214 -28 -68 -121 -132 -223 -154 -127 -27 -216 -5 -303 75 -53 49 -63 54 -104 54 -133 0 -153 -166 -32 -263 116 -93 338 -123 532 -71 173 45 318 152 382 281 34 69 37 82 37 162 0 74 -4 94 -27 143 -51 104 -136 160 -276 180 l-79 12 28 35 c55 69 75 121 78 202 3 60 0 86 -16 122 -47 105 -156 179 -294 197 -82 11 -82 11 -158 -1z"/>
    <path d="M3280 3455 c0 -77 171 -282 291 -349 94 -52 261 -112 350 -126 120 -19 124 -7 9 29 -143 45 -243 87 -317 134 -35 21 -63 41 -63 44 0 3 21 2 48 -1 l47 -7 -50 28 c-110 62 -174 117 -267 231 -28 34 -48 41 -48 17z"/>
    <path d="M5380 3361 c-24 -46 2 -91 53 -91 47 0 59 57 21 95 -22 21 -61 19 -74 -4z"/>
    <path d="M5280 3170 c-24 -24 -25 -41 -5 -80 19 -37 70 -43 80 -9 10 32 -4 88 -25 99 -25 13 -27 13 -50 -10z"/>
    <path d="M5504 3095 c-4 -9 0 -23 9 -32 21 -21 49 -9 45 19 -4 28 -45 38 -54 13z"/>
    <path d="M2940 2952 c0 -6 36 -109 79 -229 43 -120 104 -299 136 -398 80 -253 78 -248 107 -264 23 -13 38 -12 139 7 102 19 764 121 897 138 29 4 54 10 57 14 2 4 -91 10 -208 13 -117 4 -263 13 -325 22 -120 16 -342 64 -342 75 0 3 41 12 90 19 50 8 90 17 90 20 0 3 -44 23 -98 43 -53 21 -146 65 -207 99 -60 34 -121 68 -135 76 -22 12 -16 13 60 7 l85 -6 -65 42 c-115 75 -273 217 -338 304 -12 16 -22 24 -22 18z"/>
    <path d="M5905 5590 c-190 -291 -211 -322 -245 -360 l-31 -35 6 70 c4 39 18 141 31 229 14 87 23 160 21 163 -5 5 -65 -75 -121 -161 -66 -103 -195 -346 -183 -346 2 0 34 29 72 64 84 78 84 77 60 -93 -9 -64 -15 -135 -13 -157 l3 -42 75 84 c41 46 76 82 78 80 2 -2 -15 -40 -37 -85 -23 -45 -39 -81 -37 -81 2 0 52 11 110 25 58 14 111 25 118 25 7 0 -26 -28 -72 -61 -92 -67 -140 -108 -140 -121 0 -4 46 -21 103 -38 232 -71 232 -71 211 -87 -20 -16 -182 -95 -229 -113 -15 -6 -25 -13 -23 -16 9 -8 170 15 251 36 87 23 299 111 304 126 2 6 -20 16 -49 22 -75 17 -319 82 -342 91 -15 6 -3 18 70 68 191 131 400 308 456 386 l20 28 -29 -7 c-60 -14 -353 -115 -457 -158 -61 -25 -112 -44 -114 -42 -2 2 29 68 69 147 109 218 211 499 196 542 -2 7 -61 -76 -132 -183z"/>
  </g>
</svg>