<svg version="1.0" xmlns="http://www.w3.org/2000/svg" width="800.000000" height="800.000000" viewBox="0 0 800.000000 800.000000" preserveAspectRatio="xMidYMid meet">
  <metadata>
    <rdf:RDF xmlns:rdf="http://www.w3.org/1999/02/22-rdf-syntax-ns#" xmlns:rdfs="http://www.w3.org/2000/01/rdf-schema#" xmlns:dc="http://purl.org/dc/elements/1.1/">
      <rdf:Description dc:format="image/svg+xml" dc:Label="1" dc:ContentProducer="001191330110MACRLGPT8B00000" dc:ProduceID="349332326" dc:ReservedCode1="vWxUlhVHBiBl392uxX7GIRBwcQAYIrEwGCBB36Wpl8c=" dc:ContentPropagator="001191330110MACRLGPT8B00000" dc:PropagateID="349332326" dc:ReservedCode2="vWxUlhVHBiBl392uxX7GIRBwcQAYIrEwGCBB36Wpl8c="/>
    </rdf:RDF>
  </metadata>
  <g transform="translate(0.000000,800.000000) scale(0.100000,-0.100000)" fill="#FFFFFF" stroke="none">
    <path d="M5645 6018 c-71 -21 -179 -45 -240 -54 -60 -8 -151 -21 -201 -29 -51 -9 -148 -20 -218 -25 -69 -5 -154 -16 -188 -24 -35 -8 -112 -19 -173 -26 -232 -23 -278 -31 -369 -67 -86 -34 -99 -36 -256 -44 -167 -8 -411 -43 -645 -94 -490 -105 -504 -107 -670 -110 -139 -2 -160 -5 -280 -39 -118 -34 -148 -38 -320 -47 -104 -6 -235 -10 -290 -9 -91 1 -106 -2 -160 -28 -161 -77 -208 -178 -166 -355 14 -58 21 -122 21 -184 0 -125 42 -375 131 -788 37 -174 59 -327 59 -425 0 -88 30 -306 60 -438 11 -51 25 -153 30 -225 18 -228 30 -317 60 -436 50 -200 68 -301 85 -481 27 -281 53 -357 131 -379 40 -11 121 6 268 58 104 37 304 86 566 141 237 49 294 67 423 132 103 51 135 60 402 104 301 51 457 92 638 169 55 23 157 42 384 70 147 18 219 32 265 50 35 13 102 34 151 45 48 11 113 31 145 44 84 35 183 62 312 85 63 11 140 29 171 40 117 42 238 54 459 48 185 -5 210 -4 246 12 74 33 108 110 94 213 -9 65 -23 95 -103 212 -100 148 -118 209 -137 466 -6 81 -22 192 -36 250 -14 58 -31 137 -38 175 -8 39 -30 131 -49 206 -41 156 -107 542 -107 625 0 31 -13 133 -29 227 -16 95 -34 222 -40 284 -6 64 -20 138 -32 175 -19 52 -24 93 -28 238 -6 160 -8 178 -29 213 -13 20 -33 44 -45 52 -34 24 -111 16 -252 -27z m233 -30 c35 -39 42 -74 42 -223 0 -125 3 -154 25 -222 14 -45 29 -128 35 -197 6 -65 25 -193 41 -285 16 -91 29 -191 29 -222 0 -114 80 -554 130 -716 11 -38 25 -101 31 -141 6 -40 17 -91 25 -114 19 -55 31 -136 44 -308 18 -232 42 -304 152 -468 70 -103 88 -147 88 -215 0 -51 -3 -61 -34 -95 l-34 -37 -134 5 c-279 10 -415 -2 -578 -55 -41 -13 -120 -31 -175 -40 -57 -9 -164 -37 -250 -67 -82 -28 -188 -61 -235 -73 -47 -13 -104 -30 -127 -39 -23 -8 -133 -27 -245 -41 -243 -30 -293 -40 -378 -72 -214 -81 -388 -133 -445 -133 -8 0 -19 18 -26 43 -6 23 -19 51 -29 62 -10 11 -28 65 -40 119 -21 91 -28 108 -97 210 -41 61 -85 131 -98 156 -42 83 -83 217 -90 291 -9 96 -16 121 -82 262 -47 101 -58 139 -84 275 -49 258 -67 391 -55 406 6 8 25 17 41 20 17 4 55 18 85 31 88 36 545 141 770 175 74 11 196 34 270 49 74 16 167 32 205 36 194 18 321 46 429 95 26 12 94 30 150 41 299 55 561 111 604 129 25 11 29 35 7 47 -10 6 -25 61 -44 169 -16 89 -37 188 -45 220 -8 32 -20 88 -25 123 -6 36 -16 70 -23 77 -10 10 -50 4 -198 -30 -245 -58 -367 -81 -595 -116 -178 -27 -391 -66 -405 -75 -4 -2 -105 -18 -226 -35 -120 -17 -259 -40 -309 -51 -194 -42 -377 -69 -532 -79 -89 -6 -187 -17 -218 -25 -31 -8 -64 -15 -73 -15 -9 0 -23 -4 -30 -9 -15 -9 -10 -54 59 -483 22 -136 44 -294 49 -351 6 -57 28 -199 49 -315 38 -204 42 -217 101 -341 55 -116 62 -139 70 -219 8 -89 50 -233 93 -317 11 -22 50 -85 88 -141 79 -116 90 -140 113 -247 11 -48 26 -88 42 -106 15 -18 24 -41 24 -64 l0 -34 -62 -7 c-59 -6 -216 -34 -318 -57 -25 -6 -94 -34 -155 -63 -140 -68 -170 -77 -400 -125 -311 -65 -446 -98 -540 -130 -48 -17 -97 -31 -108 -31 -29 0 -86 38 -102 69 -15 30 -35 220 -35 337 0 89 -22 206 -61 326 -17 56 -35 143 -44 218 -29 250 -46 374 -60 435 -23 97 -55 329 -65 460 -6 95 -16 143 -45 233 -22 69 -40 149 -46 205 -5 51 -14 117 -19 147 -5 30 -14 100 -20 155 -6 55 -24 147 -41 205 -28 95 -32 124 -39 295 -5 147 -11 200 -25 235 -22 57 -26 176 -5 214 26 50 61 60 220 64 80 2 193 3 252 3 97 -2 124 3 283 44 165 42 185 45 308 45 76 0 158 6 192 14 33 8 83 17 110 20 28 4 82 15 120 26 39 10 93 21 120 25 28 4 106 20 175 35 199 46 442 80 610 87 149 5 158 7 250 43 95 38 163 50 355 65 44 4 122 15 173 26 51 10 136 21 190 25 53 3 133 12 177 19 44 8 127 19 185 25 94 10 288 55 410 94 66 22 103 20 128 -6z m-198 -806 c0 -15 11 -72 24 -127 25 -101 78 -386 73 -391 -2 -2 -409 -85 -585 -119 -45 -9 -117 -31 -160 -49 -75 -33 -235 -66 -392 -81 -36 -4 -116 -18 -178 -31 -62 -13 -188 -35 -280 -49 -92 -15 -189 -32 -217 -40 -27 -7 -77 -19 -110 -25 -143 -27 -441 -102 -474 -119 -20 -10 -52 -23 -72 -29 l-37 -10 -35 222 c-54 330 -70 446 -65 452 14 13 164 35 308 44 121 8 220 22 385 55 122 24 293 54 381 66 87 11 220 34 294 49 148 32 257 51 455 80 153 22 291 49 510 100 88 21 163 36 168 33 4 -2 7 -16 7 -31z"/>
    <path d="M5687 5743 c-14 -14 -6 -64 13 -83 25 -25 42 -25 64 -1 16 17 16 21 -5 55 -20 34 -54 48 -72 29z"/>
    <path d="M5400 5720 c-11 -11 -20 -29 -20 -41 0 -66 76 -133 126 -110 71 32 8 171 -77 171 -5 0 -18 -9 -29 -20z"/>
    <path d="M5737 5509 c-11 -6 -17 -22 -17 -43 0 -53 34 -81 78 -65 20 8 23 13 17 41 -12 54 -47 84 -78 67z"/>
    <path d="M2639 5312 c-40 -36 -51 -110 -24 -161 52 -103 195 -50 195 71 0 43 -4 54 -34 84 -44 44 -92 46 -137 6z"/>
    <path d="M2240 5238 c-14 -7 -33 -29 -43 -49 -38 -79 26 -155 122 -146 55 6 91 40 98 94 4 34 1 45 -24 73 -24 27 -38 33 -79 37 -29 2 -59 -1 -74 -9z"/>
    <path d="M1914 5160 c-39 -16 -64 -59 -64 -109 0 -57 19 -86 65 -101 65 -21 145 27 145 87 0 81 -82 150 -146 123z"/>
    <path d="M2740 4853 c-96 -6 -231 -26 -360 -53 -74 -15 -181 -36 -238 -46 -56 -9 -110 -23 -119 -29 -29 -21 -18 -107 38 -288 38 -121 51 -133 142 -123 34 4 128 18 208 31 80 13 204 29 275 35 150 13 225 26 272 49 38 17 38 20 7 131 -8 30 -15 77 -15 105 0 58 -46 167 -79 184 -19 11 -34 11 -131 4z m-536 -291 c10 -153 -4 -141 142 -113 223 43 224 44 224 16 0 -15 -41 -30 -110 -40 -25 -4 -105 -20 -179 -36 -101 -22 -138 -26 -148 -18 -17 14 1 39 27 39 15 0 16 6 10 43 -12 60 -15 220 -6 235 21 34 31 0 40 -126z m143 -14 c-7 -4 9 -16 38 -28 46 -21 48 -23 27 -31 -13 -5 -42 -10 -65 -11 l-41 -3 -7 45 c-4 25 -8 50 -9 55 -5 23 2 24 34 3 22 -14 30 -25 23 -30z"/>
    <path d="M5426 4331 c-3 -5 1 -44 9 -88 8 -43 21 -133 29 -200 11 -94 24 -146 56 -230 23 -59 52 -157 66 -218 27 -117 49 -174 127 -323 50 -94 69 -114 90 -93 8 8 -8 50 -65 164 -63 126 -80 170 -98 257 -12 58 -39 148 -60 201 -42 103 -49 136 -81 363 -11 82 -23 155 -26 162 -6 16 -39 19 -47 5z"/>
    <path d="M2605 4244 c-320 -65 -356 -77 -324 -109 13 -13 21 -13 64 -1 28 8 119 29 204 45 152 30 180 43 159 68 -12 15 -12 15 -103 -3z"/>
    <path d="M2787 4130 c-34 -27 -50 -73 -32 -96 11 -15 15 -16 28 -5 9 7 17 22 19 33 5 36 33 45 65 22 41 -30 61 -80 69 -169 7 -99 -3 -118 -64 -118 -101 0 -162 74 -162 195 0 66 -1 69 -22 66 -75 -11 -21 -229 70 -281 79 -46 171 -41 213 11 19 25 21 35 16 124 -6 116 -30 176 -85 213 -44 30 -81 32 -115 5z"/>
    <path d="M2151 4126 c-11 -13 -7 -32 17 -105 l30 -90 -49 -16 c-37 -13 -49 -21 -49 -37 0 -18 4 -20 38 -15 20 4 46 8 57 9 17 3 24 -13 55 -132 38 -145 44 -160 65 -160 25 0 23 26 -11 156 -18 72 -34 136 -36 143 -2 9 28 20 93 35 l97 22 8 -116 c5 -63 7 -126 6 -138 -3 -24 13 -52 29 -52 25 0 30 44 19 176 -8 97 -8 139 -1 148 8 10 8 35 -2 92 -11 67 -16 79 -33 79 -17 0 -19 -8 -22 -67 l-3 -67 -37 -11 c-41 -11 -164 -34 -172 -31 -3 0 -18 42 -35 93 -31 94 -43 110 -64 84z"/>
    <path d="M4327 4093 c-3 -5 -8 -35 -12 -68 -10 -84 -18 -89 -30 -20 -8 51 -13 60 -32 63 -22 3 -23 0 -23 -55 0 -62 -29 -139 -76 -200 -33 -43 -58 -44 -49 -3 9 43 -2 72 -28 68 -15 -2 -23 -13 -28 -35 -8 -38 -42 -106 -56 -110 -5 -2 -22 15 -37 37 -46 70 -66 52 -66 -63 0 -93 -11 -110 -35 -57 -40 88 -105 115 -157 67 -22 -21 -27 -22 -46 -9 -50 33 -104 -57 -68 -113 24 -37 79 -35 116 5 16 17 31 44 35 60 12 55 37 38 96 -67 23 -41 35 -53 54 -53 30 0 43 22 51 92 l6 53 39 0 c25 0 46 8 61 22 14 13 35 21 53 21 17 -1 41 4 53 11 26 14 73 76 92 121 29 71 42 -3 15 -85 -9 -25 -13 -50 -10 -55 9 -14 31 -12 43 3 11 13 48 140 62 210 4 21 9 40 12 42 2 2 26 -7 53 -21 57 -28 108 -29 113 -1 2 9 -2 19 -10 21 -7 2 -32 9 -54 15 -46 12 -94 54 -94 81 0 10 -7 21 -16 24 -20 8 -22 8 -27 -1z m-657 -454 c0 -6 -24 -19 -36 -19 -2 0 -4 6 -4 14 0 9 9 14 20 13 11 -1 20 -4 20 -8z"/>
    <path d="M5200 3595 c-109 -23 -338 -65 -460 -86 -196 -33 -414 -80 -427 -93 -8 -7 -9 -16 -3 -25 7 -13 18 -13 72 -3 35 7 198 37 363 67 283 52 481 89 533 101 17 3 22 11 20 27 -4 27 -16 28 -98 12z"/>
    <path d="M2645 3526 c-181 -25 -453 -96 -473 -123 -15 -21 -9 -52 18 -103 10 -19 37 -72 59 -118 55 -111 58 -112 213 -77 140 32 160 35 358 65 180 28 190 31 190 67 -1 81 -59 241 -106 287 -19 19 -124 20 -259 2z m-211 -123 c7 -26 20 -175 17 -196 -2 -14 3 -17 21 -13 13 3 64 14 113 25 50 11 114 23 144 27 48 6 53 5 49 -12 -2 -15 -18 -22 -68 -31 -36 -7 -118 -24 -183 -39 -65 -14 -121 -23 -125 -20 -3 4 -1 16 6 27 10 15 10 29 3 52 -12 42 -24 174 -16 187 10 16 33 12 39 -7z m120 -61 c18 -16 30 -34 28 -40 -2 -7 4 -12 13 -12 9 0 26 -5 38 -12 21 -11 20 -13 -18 -19 -80 -15 -82 -14 -99 45 -9 30 -16 57 -16 60 0 14 25 4 54 -22z"/>
    <path d="M5147 3210 c-92 -16 -187 -36 -210 -45 -23 -9 -86 -23 -139 -31 -57 -8 -133 -27 -185 -47 -48 -19 -112 -40 -141 -48 -62 -15 -82 -33 -61 -54 12 -13 26 -11 104 14 50 16 113 38 142 49 28 12 91 26 140 32 48 7 120 22 158 35 39 13 151 35 250 51 173 26 215 39 201 63 -11 16 -73 12 -259 -19z"/>
    <path d="M2950 3158 c-360 -61 -668 -132 -677 -155 -14 -37 16 -36 194 5 203 48 388 84 516 103 84 12 116 27 102 49 -7 12 -58 11 -135 -2z"/>
    <path d="M2815 2939 c-8 -36 13 -66 40 -55 12 4 15 16 13 43 -2 30 -8 39 -25 41 -17 3 -23 -3 -28 -29z"/>
    <path d="M3693 2859 c3 -8 39 -86 80 -174 40 -88 79 -179 85 -201 16 -56 46 -91 88 -103 36 -10 143 10 314 58 41 12 165 33 275 47 217 27 310 48 410 93 62 29 76 43 55 56 -5 3 -76 -8 -157 -24 -82 -17 -209 -36 -283 -42 -143 -12 -366 -7 -382 9 -6 6 14 18 52 32 34 13 58 26 53 30 -4 4 -46 3 -93 -2 -91 -10 -206 -3 -249 14 l-26 11 37 11 c20 6 36 16 35 21 -1 6 -24 18 -51 27 -81 29 -137 59 -194 106 -31 25 -53 39 -49 31z"/>
    <path d="M2925 2770 c-119 -19 -236 -41 -307 -61 -27 -7 -38 -15 -38 -29 0 -29 16 -33 74 -16 80 23 338 66 444 73 88 6 92 7 92 30 0 22 -3 23 -72 22 -40 0 -127 -9 -193 -19z"/>
    <path d="M2884 2677 c-3 -8 -1 -41 5 -73 6 -32 11 -93 11 -135 0 -79 6 -94 34 -83 13 5 16 23 15 103 -1 118 -17 194 -42 199 -9 2 -20 -3 -23 -11z"/>
    <path d="M2120 2477 c0 -6 14 -77 31 -157 46 -221 49 -238 49 -301 0 -32 4 -69 10 -83 18 -48 36 -48 174 0 71 24 165 51 210 59 213 41 466 114 466 135 0 16 -23 15 -128 -2 -128 -22 -418 -23 -370 -1 22 10 47 33 36 33 -2 0 -39 4 -83 10 -98 11 -175 34 -207 60 l-23 19 33 1 c17 0 32 3 32 8 -1 4 -26 25 -57 47 -50 36 -153 155 -153 176 0 5 -4 9 -10 9 -5 0 -10 -6 -10 -13z"/>
    <path d="M4970 4882 l-22 -18 40 -94 c42 -98 65 -127 82 -101 5 10 2 27 -10 52 l-19 37 125 4 c97 3 128 7 140 20 32 32 8 38 -112 31 -63 -3 -114 -3 -114 1 0 4 5 17 11 28 25 47 -73 79 -121 40z m70 -36 c0 -11 -19 -15 -25 -6 -3 5 1 10 9 10 9 0 16 -2 16 -4z"/>
    <path d="M4868 4864 c-3 -3 -30 -7 -59 -9 -30 -1 -74 -8 -99 -13 -25 -6 -72 -15 -104 -21 -66 -12 -102 -38 -114 -84 l-8 -30 -27 42 c-28 42 -60 54 -71 26 -3 -8 -8 -44 -12 -80 -7 -67 -12 -72 -44 -55 -16 9 -18 14 -9 34 23 51 -41 91 -108 68 -23 -7 -28 -15 -27 -39 2 -46 67 -187 88 -191 33 -7 39 13 17 57 -12 22 -17 41 -11 41 22 0 90 -41 100 -60 23 -42 62 -11 43 33 -14 32 -5 54 23 60 25 4 32 0 58 -38 12 -16 16 -17 29 -6 12 9 21 10 36 2 29 -16 87 -13 101 4 19 23 -2 40 -43 37 -44 -4 -87 29 -87 67 0 37 32 65 64 57 14 -3 28 -2 31 4 13 21 24 7 55 -69 32 -81 50 -100 70 -76 9 11 6 25 -10 62 -40 89 -42 100 -12 106 15 3 35 9 45 12 13 6 17 2 17 -19 0 -38 39 -135 59 -145 21 -12 82 1 117 24 22 14 24 19 13 31 -11 11 -22 11 -51 2 -40 -12 -68 -6 -68 16 0 8 15 17 36 20 36 7 54 30 37 47 -6 6 -25 6 -51 0 -68 -15 -66 14 3 40 53 20 60 49 12 49 -18 0 -36 -2 -39 -6z m-595 -171 c9 -9 -13 -34 -24 -27 -14 8 -11 34 4 34 8 0 17 -3 20 -7z"/>
    <path d="M4064 4722 c-16 -10 -34 -203 -21 -220 15 -19 28 -10 41 28 14 46 51 52 86 15 24 -26 60 -34 60 -14 0 13 -140 199 -149 199 -3 0 -11 -4 -17 -8z"/>
    <path d="M3915 4691 c-3 -5 0 -30 7 -55 13 -51 13 -51 -23 -60 -23 -5 -28 -2 -34 22 -9 38 -33 72 -50 72 -22 0 -19 -24 16 -127 25 -75 34 -93 50 -93 25 0 34 23 19 50 -14 25 -12 29 20 32 19 2 25 -3 32 -30 9 -35 33 -51 50 -34 10 10 -23 173 -44 215 -9 18 -33 23 -43 8z"/>
    <path d="M3667 4655 c-60 -61 -62 -159 -3 -212 35 -32 58 -39 121 -34 70 6 52 46 -20 46 -61 1 -90 30 -89 88 1 60 18 87 55 87 26 0 30 3 27 23 -5 34 -57 36 -91 2z"/>
  </g>
</svg>