<svg version="1.0" xmlns="http://www.w3.org/2000/svg" width="800.000000" height="800.000000" viewBox="0 0 800.000000 800.000000" preserveAspectRatio="xMidYMid meet">
  <metadata>
    <rdf:RDF xmlns:rdf="http://www.w3.org/1999/02/22-rdf-syntax-ns#" xmlns:rdfs="http://www.w3.org/2000/01/rdf-schema#" xmlns:dc="http://purl.org/dc/elements/1.1/">
      <rdf:Description dc:format="image/svg+xml" dc:Label="1" dc:ContentProducer="001191330110MACRLGPT8B00000" dc:ProduceID="349363220" dc:ReservedCode1="uWZbyux+s/661du5TD8V+jY++/u9k3pHIrYD8KM8WY4=" dc:ContentPropagator="001191330110MACRLGPT8B00000" dc:PropagateID="349363220" dc:ReservedCode2="uWZbyux+s/661du5TD8V+jY++/u9k3pHIrYD8KM8WY4="/>
    </rdf:RDF>
  </metadata>
  <g transform="translate(0.000000,800.000000) scale(0.100000,-0.100000)" fill="#94a3b8" stroke="none">
    <path d="M4778 6110 c-275 -47 -519 -224 -642 -468 -59 -117 -78 -197 -83 -353 -6 -154 5 -225 56 -360 43 -112 181 -285 289 -361 60 -42 165 -92 247 -118 99 -31 333 -39 460 -16 327 61 663 271 763 478 106 216 91 523 -35 737 -47 79 -166 203 -252 260 -75 51 -215 118 -322 154 -138 47 -355 68 -481 47z m295 -125 c230 -41 449 -156 585 -308 56 -61 62 -77 34 -77 -10 0 -38 -13 -63 -28 -82 -53 -114 -158 -107 -357 4 -105 8 -128 33 -183 28 -63 102 -142 131 -142 25 0 15 -18 -38 -66 -50 -44 -193 -144 -207 -144 -4 0 -31 24 -60 54 l-53 53 84 65 c83 64 102 90 74 101 -14 6 -187 -114 -299 -206 l-49 -40 -41 41 c-40 40 -40 42 -23 61 18 20 15 41 -7 41 -7 0 -43 -27 -80 -61 l-68 -61 -24 26 c-13 14 -29 26 -35 26 -21 0 -22 -31 -1 -54 25 -27 26 -34 4 -58 -23 -25 -37 -23 -78 13 -35 31 -65 34 -65 6 0 -7 16 -26 35 -41 19 -16 35 -32 35 -36 0 -5 -14 -19 -31 -31 -31 -21 -32 -22 -92 -5 -316 88 -541 433 -497 762 59 446 451 728 903 649z m724 -572 c24 -105 24 -257 -1 -345 -16 -59 -21 -68 -41 -68 -33 0 -81 44 -97 88 -8 23 -13 85 -13 167 0 153 14 197 67 220 60 26 65 22 85 -62z m-737 -698 l34 -35 -31 -32 c-35 -35 -51 -33 -82 10 l-21 30 26 31 c14 17 29 31 33 31 4 0 22 -16 41 -35z m278 -8 c23 -23 42 -46 42 -50 0 -11 -106 -57 -129 -57 -10 0 -31 16 -46 36 l-28 36 44 39 c24 21 51 38 59 39 9 0 35 -19 58 -43z m-379 -88 c22 -29 23 -31 6 -49 -23 -25 -33 -25 -62 2 -27 26 -28 35 -6 60 22 25 34 22 62 -13z m207 -16 l25 -27 -52 -12 c-50 -11 -79 -10 -79 5 0 8 63 60 73 61 4 0 19 -12 33 -27z m-316 -48 c11 -13 8 -15 -15 -15 -23 0 -26 2 -15 15 7 8 14 15 15 15 1 0 8 -7 15 -15z"/>
    <path d="M5142 5465 c-159 -49 -205 -243 -85 -357 134 -128 362 -31 363 155 0 87 -68 177 -154 202 -59 18 -68 18 -124 0z m131 -143 c37 -39 36 -84 -2 -123 -40 -39 -89 -40 -130 -1 -43 39 -45 84 -6 126 35 38 101 37 138 -2z"/>
    <path d="M4575 5454 c-44 -22 -95 -74 -111 -111 -29 -68 -15 -156 34 -214 83 -96 226 -106 315 -21 111 105 77 287 -65 346 -48 20 -134 20 -173 0z m152 -128 c22 -19 28 -32 28 -66 0 -84 -95 -121 -156 -61 -41 41 -40 90 2 125 40 34 88 34 126 2z"/>
    <path d="M2890 6104 c-196 -39 -332 -93 -484 -191 -231 -149 -356 -381 -356 -660 1 -254 103 -450 315 -608 184 -137 414 -205 692 -205 155 0 242 15 367 64 208 82 331 195 424 388 65 137 76 192 77 363 0 166 -11 220 -70 351 -109 240 -304 410 -550 479 -60 17 -358 30 -415 19z m405 -144 c198 -63 349 -194 436 -376 50 -106 69 -177 76 -299 7 -119 -17 -236 -73 -350 -33 -67 -88 -145 -102 -145 -4 0 -20 16 -36 36 l-28 36 21 19 c12 11 21 24 21 30 0 18 -31 22 -49 5 -25 -23 -35 -20 -65 19 -15 19 -34 35 -42 35 -22 0 -17 -35 11 -68 14 -17 25 -34 25 -39 0 -5 -18 -26 -40 -48 l-40 -39 -25 24 c-24 22 -27 23 -42 7 -16 -15 -15 -18 5 -40 20 -21 21 -26 8 -36 -11 -9 -20 -10 -36 -1 -41 22 -69 -12 -35 -40 11 -9 13 -16 6 -23 -7 -7 -25 2 -56 27 -44 37 -75 42 -75 13 0 -7 20 -29 44 -49 24 -20 46 -46 49 -57 4 -18 1 -21 -27 -21 -19 0 -38 8 -49 20 -21 25 -57 27 -57 2 0 -10 6 -24 13 -31 10 -11 -13 -12 -133 -8 -172 7 -300 35 -428 97 -96 46 -136 74 -214 149 -54 51 -71 81 -48 81 19 0 82 64 102 104 35 68 48 135 48 247 0 141 -23 218 -85 287 -24 27 -58 55 -75 62 -16 7 -30 18 -30 24 0 21 98 122 167 174 127 94 249 147 428 188 96 22 341 13 430 -16z m-1034 -491 c57 -41 73 -89 73 -229 1 -111 -2 -130 -22 -172 -23 -47 -64 -83 -85 -75 -17 6 -45 117 -53 209 -6 74 8 213 27 266 11 27 23 28 60 1z m1326 -724 c-5 -6 -17 0 -32 18 -13 15 -29 27 -36 27 -9 0 -9 3 0 14 10 11 17 8 44 -18 20 -18 29 -35 24 -41z m-67 -57 c-12 -10 -26 -18 -30 -18 -8 0 -53 71 -48 75 30 23 43 22 71 -8 l29 -31 -22 -18z m-82 -49 c-22 -14 -34 -10 -48 17 -12 21 -12 27 0 34 10 6 21 1 38 -17 19 -20 21 -28 10 -34z m-84 -30 c-3 -5 -14 -9 -26 -9 -17 0 -18 3 -8 14 12 15 44 10 34 -5z"/>
    <path d="M2708 5457 c-83 -39 -138 -136 -123 -216 21 -111 111 -191 215 -191 65 0 109 19 157 67 88 88 82 218 -15 305 -68 61 -153 74 -234 35z m165 -137 c31 -34 34 -58 12 -100 -30 -57 -95 -67 -145 -22 -41 37 -48 79 -19 115 43 55 105 58 152 7z"/>
    <path d="M3288 5470 c-93 -28 -158 -113 -158 -204 0 -43 29 -117 58 -150 26 -30 113 -66 157 -66 112 1 215 104 215 216 0 136 -142 243 -272 204z m119 -137 c47 -31 37 -120 -18 -148 -36 -19 -55 -19 -89 2 -54 31 -64 85 -25 132 35 41 81 46 132 14z"/>
    <path d="M3380 4459 c-152 -56 -342 -74 -465 -44 -75 18 -120 19 -133 3 -6 -8 -10 -168 -11 -443 0 -236 -5 -556 -10 -710 -14 -363 -14 -785 -1 -916 25 -243 86 -361 219 -423 39 -18 65 -21 161 -21 103 0 121 3 171 26 107 51 157 126 186 281 15 80 17 167 18 608 0 283 -4 764 -9 1068 l-9 553 -25 20 c-30 23 -24 23 -92 -2z m6 -646 c5 -285 9 -736 8 -1003 0 -600 -6 -648 -90 -734 -39 -40 -58 -44 -86 -19 -25 22 -24 47 2 39 11 -3 29 -9 40 -12 15 -5 20 -2 20 14 0 11 -7 25 -15 32 -8 7 -15 19 -15 27 0 12 7 14 30 10 37 -8 40 12 10 50 -11 14 -20 32 -20 39 0 32 -50 8 -53 -24 -1 -24 -5 -26 -26 -13 -20 13 -6 43 45 91 46 43 52 63 18 68 -12 2 -34 -13 -59 -38 -36 -37 -65 -51 -65 -32 0 4 -22 32 -49 62 -39 44 -52 53 -62 43 -16 -16 -4 -41 53 -109 36 -44 38 -48 22 -65 -21 -23 -47 -24 -64 -4 -7 8 -21 15 -32 15 -16 0 -19 -6 -16 -32 2 -25 9 -34 27 -38 24 -5 24 -6 -16 -38 -23 -17 -43 -32 -46 -32 -10 0 -39 88 -53 160 -23 118 -28 437 -14 935 7 253 13 600 13 770 l1 310 170 1 c147 0 180 3 231 21 33 12 65 21 71 22 8 1 14 -154 20 -516z m-206 -1660 c0 -18 -30 -16 -52 4 -17 15 -17 17 -1 35 17 19 17 19 35 -4 10 -13 18 -29 18 -35z m-75 -39 l27 -27 -29 -28 c-26 -27 -30 -28 -70 -17 -24 6 -43 14 -43 18 0 8 76 80 85 80 2 0 16 -12 30 -26z m75 -89 c0 -9 -9 -15 -25 -15 -26 0 -34 15 -12 23 23 10 37 7 37 -8z"/>
    <path d="M4440 4431 c-12 -24 -13 -1792 -1 -2021 16 -288 71 -414 210 -482 40 -20 61 -23 171 -23 117 0 129 2 182 28 109 54 175 156 199 311 15 91 5 796 -15 1201 -9 160 -18 412 -22 560 -7 267 -7 270 15 289 37 33 23 98 -24 110 -14 4 -49 0 -77 -9 -107 -32 -326 -16 -488 35 -85 26 -136 26 -150 1z m344 -170 c44 -4 120 -6 169 -3 l87 5 0 -119 c0 -122 8 -317 35 -959 10 -223 15 -479 12 -645 -4 -280 -15 -370 -43 -370 -8 0 -14 5 -14 10 0 17 -42 11 -56 -7 -10 -14 -13 -15 -14 -4 0 8 8 23 17 33 15 17 15 20 0 35 -15 15 -18 15 -43 -1 -24 -16 -28 -16 -42 -3 -13 14 -6 25 73 107 80 83 86 93 72 107 -14 14 -18 14 -44 -5 -15 -11 -55 -50 -87 -86 l-59 -67 -32 31 c-17 16 -36 30 -42 30 -24 0 -20 -30 8 -60 33 -34 33 -33 -20 -100 -18 -22 -22 -23 -44 -11 -14 8 -33 11 -41 8 -20 -8 -21 -43 -1 -51 19 -7 19 -25 0 -50 -12 -16 -17 -17 -30 -6 -24 20 -47 81 -40 107 4 17 13 23 34 23 38 0 81 35 81 66 0 20 -5 24 -29 24 -30 0 -55 30 -88 104 -7 16 -21 35 -31 42 -16 12 -17 73 -20 942 l-3 930 77 -24 c42 -14 113 -28 158 -33z m-179 -2007 c-25 -19 -31 -10 -39 56 l-7 55 33 -49 c31 -47 31 -49 13 -62z m259 -67 c9 -14 4 -24 -27 -54 -34 -35 -38 -36 -54 -21 -15 16 -14 20 18 57 36 42 46 45 63 18z m77 -63 c13 -12 22 -13 37 -5 14 7 24 7 36 -2 15 -11 14 -15 -11 -39 -28 -26 -113 -51 -140 -41 -22 9 -15 35 19 70 37 38 36 38 59 17z m-191 -78 c-14 -18 -46 -21 -55 -6 -4 6 4 19 17 30 20 16 25 17 37 5 12 -11 12 -17 1 -29z m60 -26 c0 -5 -2 -10 -4 -10 -3 0 -8 5 -11 10 -3 6 -1 10 4 10 6 0 11 -4 11 -10z"/>
  </g>
</svg>