<svg version="1.0" xmlns="http://www.w3.org/2000/svg" width="800.000000" height="800.000000" viewBox="0 0 800.000000 800.000000" preserveAspectRatio="xMidYMid meet">
  <metadata>
    <rdf:RDF xmlns:rdf="http://www.w3.org/1999/02/22-rdf-syntax-ns#" xmlns:rdfs="http://www.w3.org/2000/01/rdf-schema#" xmlns:dc="http://purl.org/dc/elements/1.1/">
      <rdf:Description dc:format="image/svg+xml" dc:Label="1" dc:ContentProducer="001191330110MACRLGPT8B00000" dc:ProduceID="349332328" dc:ReservedCode1="1rQeIo+4OSJPo0p6R8ldx+eW69ivO8JjOPYfamvLHjs=" dc:ContentPropagator="001191330110MACRLGPT8B00000" dc:PropagateID="349332328" dc:ReservedCode2="1rQeIo+4OSJPo0p6R8ldx+eW69ivO8JjOPYfamvLHjs="/>
    </rdf:RDF>
  </metadata>
  <g transform="translate(0.000000,800.000000) scale(0.100000,-0.100000)" fill="#000000" stroke="none">
    <path d="M5545 6458 c-74 -16 -776 -158 -2981 -601 -61 -13 -123 -31 -139 -41 -18 -12 -40 -46 -63 -99 -20 -45 -69 -149 -109 -230 -40 -81 -73 -159 -73 -172 0 -22 50 -338 190 -1195 28 -168 73 -444 100 -615 263 -1623 288 -1767 308 -1794 28 -38 61 -52 112 -48 25 2 369 97 765 211 617 178 1554 448 2040 587 77 22 154 46 171 54 23 10 62 57 138 163 59 83 112 154 119 160 6 6 32 15 56 22 73 19 117 82 105 150 -2 14 -31 210 -64 435 -33 226 -83 559 -110 740 -27 182 -79 530 -115 775 -36 245 -77 517 -91 605 -18 112 -24 179 -20 221 7 72 -66 580 -90 627 -21 39 -71 67 -119 66 -22 -1 -80 -10 -130 -21z m175 -43 c35 -18 31 -1 76 -300 48 -321 49 -296 -6 -312 -40 -12 -1293 -272 -2450 -509 -789 -161 -829 -169 -839 -159 -9 10 -91 508 -91 552 0 37 21 71 54 87 32 15 95 27 1926 396 602 122 1133 229 1180 239 108 24 115 24 150 6z m126 -820 c26 -179 54 -369 89 -600 14 -93 46 -305 70 -470 25 -165 85 -574 135 -909 49 -334 90 -620 90 -635 0 -16 -9 -36 -19 -45 -20 -18 -175 -66 -571 -177 -118 -33 -426 -120 -685 -194 -475 -134 -587 -166 -1290 -364 -550 -154 -538 -151 -572 -151 -17 0 -40 8 -52 17 -21 19 -13 -27 -455 2626 -42 253 -59 380 -52 382 6 2 353 73 771 159 770 157 1101 225 1995 411 272 57 502 103 510 102 11 -2 20 -39 36 -152z m-3438 -577 c15 -15 16 -70 1 -85 -18 -18 -38 -4 -45 33 -9 48 17 79 44 52z m-23 -224 c0 -19 -6 -30 -17 -32 -14 -3 -18 3 -18 26 0 16 3 32 7 36 14 13 28 -1 28 -30z m3463 -2063 c2 -13 -1 -28 -7 -34 -17 -17 -45 15 -36 42 9 29 39 23 43 -8z m82 -56 c0 -8 -4 -15 -10 -15 -5 0 -10 7 -10 15 0 8 5 15 10 15 6 0 10 -7 10 -15z m-90 -90 c0 -8 -4 -15 -9 -15 -13 0 -22 16 -14 24 11 11 23 6 23 -9z"/>
    <path d="M5459 6254 c-27 -32 0 -118 31 -99 19 12 28 48 18 77 -11 32 -32 42 -49 22z"/>
    <path d="M5602 6198 c-15 -15 -15 -43 -2 -69 25 -46 74 7 52 56 -13 27 -31 32 -50 13z"/>
    <path d="M5290 6181 c-34 -65 31 -166 78 -119 24 24 10 109 -22 130 -20 14 -45 8 -56 -11z"/>
    <path d="M5500 6024 c-17 -45 18 -82 48 -52 25 25 8 78 -25 78 -8 0 -18 -12 -23 -26z"/>
    <path d="M3382 5740 c-19 -12 -40 -37 -49 -58 -54 -129 147 -227 212 -102 58 111 -57 224 -163 160z"/>
    <path d="M3033 5665 c-36 -16 -73 -68 -73 -103 0 -38 30 -92 61 -107 82 -43 179 15 179 106 0 38 -31 87 -65 103 -40 19 -60 20 -102 1z"/>
    <path d="M2664 5584 c-40 -19 -64 -62 -64 -114 0 -34 6 -48 34 -76 29 -29 41 -34 81 -34 40 0 52 5 81 34 28 28 34 42 34 75 0 56 -22 95 -64 115 -42 20 -62 20 -102 0z"/>
    <path d="M3896 5022 c-182 -92 -334 -175 -340 -184 -7 -12 0 -71 25 -207 l36 -191 -71 -21 c-39 -12 -76 -25 -83 -31 -8 -6 -20 -4 -37 7 -25 16 -25 18 -10 48 24 45 15 126 -19 171 -34 44 -76 53 -158 36 -98 -21 -96 1 -25 -308 35 -150 66 -275 69 -278 8 -8 135 34 173 57 17 10 36 30 42 44 17 36 15 110 -3 145 -14 27 -14 30 2 38 26 14 123 35 129 29 5 -5 82 -383 100 -490 4 -23 15 -42 27 -49 32 -17 514 -24 618 -9 196 29 442 107 667 212 114 53 152 82 152 117 0 15 -20 131 -45 257 -25 127 -45 240 -45 251 0 18 9 23 61 33 52 11 71 10 142 -7 131 -32 172 -35 190 -17 18 18 13 40 -11 50 -9 4 -68 17 -131 30 -98 20 -119 21 -150 10 -42 -14 -121 -28 -121 -20 0 30 -75 363 -84 372 -11 13 -137 26 -531 58 -104 8 -201 15 -215 15 -14 -1 -173 -76 -354 -168z m644 93 c204 -15 413 -35 418 -39 5 -5 70 -341 66 -345 -2 -2 -84 -21 -182 -40 l-179 -37 -32 62 c-38 74 -98 136 -161 166 -71 35 -176 32 -260 -8 -86 -41 -130 -80 -168 -152 -23 -43 -33 -79 -38 -131 -4 -39 -8 -71 -9 -71 -1 0 -73 -16 -160 -35 -86 -20 -159 -34 -162 -32 -2 2 -19 82 -37 178 -25 129 -31 177 -22 185 6 7 150 82 321 168 292 147 312 156 355 151 25 -3 137 -12 250 -20z m-97 -280 c66 -27 108 -75 154 -172 57 -123 95 -184 164 -266 46 -56 60 -81 74 -135 9 -37 34 -101 55 -141 22 -41 38 -76 37 -76 -1 -1 -57 -21 -124 -45 l-123 -43 -42 29 c-24 16 -59 41 -79 57 l-36 28 -92 -17 c-51 -9 -99 -23 -107 -31 -8 -8 -14 -29 -14 -46 0 -18 -5 -49 -11 -69 l-10 -38 -154 0 c-181 0 -168 -13 -133 136 21 91 21 97 5 148 -23 72 -22 87 15 169 30 67 33 80 34 193 2 101 6 128 24 167 27 58 106 130 163 150 55 20 155 21 200 2z m602 -187 c3 -13 26 -128 51 -257 36 -188 43 -236 32 -243 -7 -5 -43 -24 -80 -43 -51 -26 -68 -31 -76 -22 -16 19 -82 160 -82 174 0 39 -39 116 -90 176 -51 61 -117 165 -108 171 6 5 303 64 325 65 16 1 24 -6 28 -21z m-1695 -85 c42 -53 9 -153 -50 -153 -14 0 -22 17 -37 83 -21 90 -18 97 34 97 23 0 38 -8 53 -27z m655 -125 c-4 -13 -20 -56 -37 -97 -31 -78 -32 -90 -12 -227 4 -27 -2 -76 -16 -138 l-22 -96 -69 0 -68 0 -10 53 c-21 101 -79 412 -83 437 -3 24 1 26 132 57 74 17 148 32 163 32 25 1 28 -2 22 -21z m-614 -98 c27 -15 49 -63 49 -110 0 -35 -4 -43 -32 -60 -49 -30 -66 -26 -77 18 -34 133 -37 152 -27 156 20 8 67 6 87 -4z m1169 -400 c-36 -11 -98 -25 -138 -32 -62 -10 -74 -10 -87 3 -12 12 -4 14 63 16 42 1 100 8 127 17 28 8 61 14 75 14 14 0 -4 -8 -40 -18z"/>
    <path d="M4508 4426 c-20 -6 -42 -16 -47 -21 -16 -16 48 -243 70 -250 20 -7 138 12 158 25 8 4 11 15 8 24 -7 18 -42 20 -100 7 -40 -10 -41 -9 -51 31 -6 25 -3 28 26 36 23 6 33 14 33 28 0 16 -7 19 -42 17 -35 -1 -42 2 -47 20 -9 34 -8 35 33 42 42 7 67 27 56 45 -8 13 -49 11 -97 -4z"/>
    <path d="M4182 4373 c-5 -10 -26 -76 -47 -146 -26 -89 -34 -132 -27 -139 21 -21 41 2 63 71 17 51 28 71 43 75 21 6 26 1 67 -56 14 -19 19 -21 32 -10 19 16 18 19 -46 135 -48 87 -68 103 -85 70z"/>
    <path d="M4395 4130 c-55 -11 -123 -19 -150 -19 -56 -1 -82 -16 -64 -38 17 -19 97 -16 227 8 76 14 115 26 119 36 5 13 -13 34 -27 32 -3 -1 -50 -9 -105 -19z"/>
    <path d="M5365 4986 c-137 -56 -167 -74 -163 -99 2 -12 10 -23 20 -25 19 -4 233 84 254 105 10 11 11 19 4 34 -14 25 -21 24 -115 -15z"/>
    <path d="M5253 4523 c-23 -9 -14 -43 13 -53 28 -11 213 -14 238 -4 19 7 21 35 4 52 -12 12 -228 16 -255 5z"/>
    <path d="M5155 3839 c-55 -10 -162 -29 -238 -42 -76 -14 -143 -29 -149 -35 -7 -7 8 -145 46 -422 30 -227 57 -414 60 -417 7 -7 618 115 628 125 5 5 -8 75 -32 168 -109 421 -163 620 -173 632 -12 15 -16 14 -142 -9z m114 -71 c11 -37 66 -238 110 -405 16 -62 26 -113 23 -113 -3 0 -15 9 -27 20 -12 11 -48 25 -81 31 -89 17 -104 25 -104 54 0 14 9 39 21 54 23 31 24 44 12 137 -9 69 -31 107 -71 128 -52 26 -86 28 -144 6 -62 -23 -90 -49 -113 -102 -19 -46 -20 -157 -1 -202 16 -38 69 -74 114 -78 48 -4 40 -29 -22 -66 -30 -18 -63 -43 -74 -56 -18 -24 -19 -23 -57 260 -21 156 -37 285 -34 287 5 4 395 75 421 76 10 1 20 -11 27 -31z m-129 -134 c13 -13 19 -24 12 -24 -6 0 -12 4 -12 9 0 5 -19 18 -42 30 -36 17 -38 20 -13 15 17 -4 41 -17 55 -30z m-167 -276 c24 -19 16 -24 -14 -8 -22 12 -49 61 -49 87 1 10 9 1 21 -22 11 -22 30 -48 42 -57z m333 -155 c-11 -11 -19 6 -11 24 8 17 8 17 12 0 3 -10 2 -21 -1 -24z"/>
    <path d="M5230 3743 c0 -23 15 -39 24 -25 3 5 -1 18 -9 28 -14 18 -14 18 -15 -3z"/>
    <path d="M4100 3636 c-331 -71 -300 -61 -300 -99 0 -49 121 -801 131 -811 11 -12 85 1 384 71 274 63 285 67 285 88 0 16 -166 638 -198 745 -13 41 -22 55 -37 57 -11 1 -130 -22 -265 -51z m253 -26 c3 -11 1 -20 -4 -20 -14 0 -11 -17 7 -34 8 -9 49 -138 90 -288 41 -150 77 -282 80 -293 3 -11 -14 9 -39 45 -66 96 -85 111 -158 119 -87 11 -113 49 -67 98 18 20 23 39 26 99 5 85 -6 119 -49 160 -29 28 -34 29 -117 27 -92 -2 -115 -12 -156 -67 -16 -21 -21 -42 -21 -95 0 -94 33 -157 98 -190 28 -14 47 -30 47 -40 -1 -9 -24 -32 -52 -51 -29 -19 -62 -50 -75 -68 -27 -41 -19 -66 -68 233 -19 121 -37 234 -40 252 -6 31 -5 32 47 42 29 6 134 29 233 50 213 47 211 46 218 21z m-305 -397 c28 -23 16 -31 -19 -13 -23 13 -49 61 -49 92 1 19 5 16 21 -17 11 -22 33 -50 47 -62z m409 -240 c17 -14 17 -14 1 -9 -10 3 -18 1 -18 -4 0 -5 11 -12 25 -16 13 -3 29 -12 35 -19 9 -10 0 -16 -42 -24 -29 -7 -56 -17 -61 -24 -6 -8 -7 -6 -3 6 3 10 6 55 7 100 l1 81 19 -38 c10 -21 26 -45 36 -53z m-477 -106 c10 -21 30 -39 60 -53 l44 -22 -54 -9 c-63 -10 -64 -9 -72 70 -6 55 1 60 22 14z"/>
    <path d="M2995 2908 c5 -23 115 -723 115 -732 0 -2 7 -11 15 -19 17 -18 -7 -23 360 76 469 127 538 147 544 153 3 4 -3 4 -14 1 -73 -20 -194 -31 -350 -31 -158 -1 -192 2 -272 23 -89 22 -120 41 -69 41 29 0 126 30 126 40 0 3 -24 12 -52 20 -68 17 -183 66 -228 96 l-35 24 65 1 c36 1 75 4 88 8 22 6 18 10 -40 53 -73 53 -182 164 -223 226 -31 48 -38 52 -30 20z"/>
  </g>
</svg>