<svg version="1.0" xmlns="http://www.w3.org/2000/svg" width="800.000000" height="800.000000" viewBox="0 0 800.000000 800.000000" preserveAspectRatio="xMidYMid meet">
  <metadata>
    <rdf:RDF xmlns:rdf="http://www.w3.org/1999/02/22-rdf-syntax-ns#" xmlns:rdfs="http://www.w3.org/2000/01/rdf-schema#" xmlns:dc="http://purl.org/dc/elements/1.1/">
      <rdf:Description dc:format="image/svg+xml" dc:Label="1" dc:ContentProducer="001191330110MACRLGPT8B00000" dc:ProduceID="349332327" dc:ReservedCode1="AwBfNsBx7hivvFvFZtj8M0uAv/QmZFErwd/arUevpS8=" dc:ContentPropagator="001191330110MACRLGPT8B00000" dc:PropagateID="349332327" dc:ReservedCode2="AwBfNsBx7hivvFvFZtj8M0uAv/QmZFErwd/arUevpS8="/>
    </rdf:RDF>
  </metadata>
  <g transform="translate(0.000000,800.000000) scale(0.100000,-0.100000)" fill="#000000" stroke="none">
    <path d="M2910 6424 c-327 -57 -605 -108 -617 -114 -12 -5 -29 -20 -38 -33 -14 -22 -13 -32 20 -145 19 -67 35 -128 35 -135 0 -19 -4 -20 -176 -62 -194 -47 -221 -62 -263 -155 -41 -91 -56 -30 354 -1445 244 -842 269 -928 391 -1350 271 -938 347 -1192 365 -1221 23 -37 79 -77 133 -94 45 -15 123 -9 269 19 70 13 99 15 102 7 1 -6 11 -42 20 -80 30 -116 100 -163 230 -153 33 2 229 34 435 70 206 36 708 122 1115 191 631 107 748 129 793 152 57 29 91 64 124 128 42 80 35 117 -111 601 -130 432 -182 605 -476 1590 -80 270 -222 742 -315 1050 -93 308 -196 652 -229 765 -33 113 -69 216 -79 229 -51 69 -125 85 -255 56 -42 -9 -80 -14 -86 -11 -5 3 -14 28 -21 54 -22 95 -106 161 -202 162 -48 0 -177 -29 -550 -122 -204 -51 -208 -52 -222 -33 -8 11 -17 40 -21 65 -12 78 -51 121 -108 119 -12 0 -290 -48 -617 -105z m662 16 c4 -14 13 -45 19 -69 13 -53 48 -91 86 -91 16 0 175 36 353 81 385 96 411 99 468 70 23 -12 48 -31 56 -44 7 -12 35 -94 61 -182 104 -355 462 -1552 575 -1925 38 -124 130 -430 205 -680 75 -250 187 -617 248 -815 61 -198 112 -379 115 -403 6 -61 -14 -124 -55 -172 -60 -70 -44 -65 -498 -145 -176 -31 -522 -92 -770 -135 -247 -43 -616 -109 -820 -145 -203 -37 -386 -69 -405 -72 -54 -8 -115 13 -158 55 -34 33 -43 53 -85 197 -26 88 -182 628 -348 1200 -165 572 -327 1132 -360 1245 -302 1039 -361 1255 -355 1300 7 50 38 101 76 123 21 13 180 56 332 91 17 4 34 18 43 36 15 29 14 37 -21 156 -30 105 -33 129 -22 139 7 7 200 45 428 84 228 40 487 85 575 101 88 16 180 28 205 27 38 -2 46 -6 52 -27z m1286 -296 c2 -11 -3 -26 -11 -33 -29 -24 -70 17 -46 46 17 20 53 12 57 -13z m98 -85 c10 -17 -23 -46 -37 -32 -7 7 -9 19 -6 27 7 18 33 21 43 5z m-86 -69 c0 -5 -7 -10 -16 -10 -8 0 -12 5 -9 10 3 6 10 10 16 10 5 0 9 -4 9 -10z m126 -45 c8 -20 -13 -45 -32 -38 -14 5 -19 34 -7 46 11 12 33 7 39 -8z m-1259 -4280 c70 -11 75 -13 45 -20 -63 -15 -48 -28 24 -22 61 5 66 4 40 -7 -43 -19 -13 -26 116 -26 112 0 131 -6 61 -20 -326 -66 -309 -64 -350 -44 -43 21 -77 80 -88 152 l-7 43 41 -22 c22 -11 76 -27 118 -34z"/>
    <path d="M4400 6330 c0 -13 7 -20 20 -20 13 0 20 7 20 20 0 13 -7 20 -20 20 -13 0 -20 -7 -20 -20z"/>
    <path d="M4226 6317 c-21 -16 -18 -55 6 -70 12 -8 24 -7 42 1 36 16 36 59 0 72 -31 12 -27 13 -48 -3z"/>
    <path d="M4424 6229 c-3 -6 -2 -15 3 -20 12 -12 53 1 53 17 0 17 -46 19 -56 3z"/>
    <path d="M2380 6197 c0 -2 6 -26 14 -53 7 -27 19 -75 25 -107 8 -36 19 -61 31 -67 13 -7 93 8 306 61 159 38 291 72 293 75 3 3 -1 9 -9 14 -22 14 -142 12 -254 -5 -120 -18 -158 -19 -136 -5 10 8 -8 9 -60 5 -66 -5 -73 -4 -57 8 25 21 21 27 -15 27 -18 0 -53 11 -77 25 -39 23 -61 30 -61 22z"/>
    <path d="M3950 5939 c-107 -27 -505 -123 -884 -214 -379 -91 -700 -172 -715 -179 -53 -28 -95 -99 -94 -161 1 -22 31 -150 68 -285 37 -135 129 -477 206 -760 77 -283 147 -532 156 -554 20 -46 72 -83 129 -92 30 -4 134 13 410 70 391 80 1184 241 1369 277 61 12 128 31 150 43 50 27 85 86 85 146 0 28 -40 185 -105 409 -104 358 -324 1136 -345 1218 -21 85 -89 134 -182 132 -29 -1 -141 -23 -248 -50z m308 -13 c15 -8 35 -23 44 -33 10 -11 43 -109 73 -219 30 -109 75 -269 99 -354 25 -85 44 -155 43 -157 -2 -1 -21 8 -44 19 -59 30 -116 91 -160 173 -38 68 -73 97 -73 58 0 -10 27 -122 61 -248 33 -127 83 -315 110 -419 27 -104 51 -192 54 -194 2 -3 11 1 20 8 11 10 13 27 8 84 -8 95 15 150 75 184 38 21 41 21 46 5 88 -291 167 -594 162 -622 -6 -39 -36 -75 -74 -90 -15 -5 -184 -42 -377 -80 -326 -65 -631 -127 -1236 -250 -266 -54 -293 -55 -336 -9 -15 16 -47 120 -106 338 -47 173 -113 414 -146 535 -180 659 -193 710 -188 748 5 38 34 79 69 98 9 5 220 58 470 118 555 133 1044 252 1198 290 133 33 171 36 208 17z"/>
    <path d="M3941 5629 c-69 -16 -126 -31 -128 -32 -1 -2 15 -68 36 -148 21 -79 67 -252 101 -384 35 -132 86 -330 115 -440 29 -110 61 -235 71 -279 10 -43 24 -81 32 -83 18 -8 264 46 279 61 12 11 -10 102 -254 1026 -25 96 -53 204 -62 240 -21 79 -19 79 -190 39z"/>
    <path d="M3725 5530 c-4 -6 -3 -39 0 -74 10 -89 -12 -159 -69 -223 -24 -27 -59 -57 -78 -67 l-33 -18 84 -337 83 -337 52 -2 c69 -3 112 -18 169 -59 38 -28 55 -51 85 -114 25 -53 43 -79 54 -79 9 0 19 4 22 9 3 5 -26 129 -65 277 -39 148 -100 382 -135 519 -36 138 -75 291 -89 340 -13 50 -29 109 -35 133 -10 40 -31 55 -45 32z"/>
    <path d="M2709 5240 c-37 -87 -135 -160 -214 -160 -30 0 -35 -3 -31 -17 5 -21 243 -921 257 -976 8 -31 14 -37 27 -32 74 31 153 26 240 -15 65 -30 97 -37 106 -21 3 4 -12 75 -33 157 -30 114 -206 789 -282 1077 -15 55 -43 50 -70 -13z"/>
    <path d="M2900 5047 c0 -7 31 -131 70 -275 38 -144 84 -320 101 -392 25 -107 34 -130 47 -128 14 3 16 15 13 77 -2 40 3 93 10 118 13 49 75 123 102 123 22 0 21 4 -11 135 l-28 109 -37 8 c-91 19 -143 63 -197 166 -32 62 -70 94 -70 59z"/>
    <path d="M3493 5048 c-6 -7 -13 -25 -16 -39 -4 -15 -21 -48 -39 -75 -36 -54 -118 -107 -155 -101 -28 5 -28 6 6 -122 l27 -104 72 2 c89 3 147 -21 214 -86 26 -26 49 -45 52 -42 2 2 -16 81 -40 174 -24 94 -56 220 -70 280 -27 116 -35 134 -51 113z"/>
    <path d="M4495 3579 c-575 -112 -530 -101 -533 -126 -3 -19 1 -23 21 -23 33 0 809 147 880 167 22 6 19 47 -3 49 -8 1 -172 -29 -365 -67z"/>
    <path d="M3390 3537 c-112 -59 -118 -222 -11 -294 86 -58 210 -27 247 63 37 87 3 189 -75 231 -56 29 -106 29 -161 0z m-2 -68 c-6 -16 -7 -49 -4 -72 7 -42 47 -115 73 -130 26 -15 13 -26 -19 -15 -93 31 -127 146 -67 222 27 34 30 33 17 -5z"/>
    <path d="M4960 3114 c-8 -2 -179 -33 -380 -69 -560 -101 -523 -92 -503 -123 6 -10 20 -16 34 -14 20 3 379 67 795 143 123 23 140 30 131 53 -6 15 -38 19 -77 10z"/>
    <path d="M3540 3059 c-64 -27 -100 -85 -100 -162 0 -94 74 -167 168 -167 54 0 81 11 118 49 102 104 36 279 -109 288 -29 1 -63 -2 -77 -8z m-8 -82 c-5 -63 13 -117 54 -165 l36 -42 -26 0 c-78 0 -139 89 -116 170 7 25 45 80 54 80 1 0 0 -19 -2 -43z"/>
    <path d="M4655 2648 c-243 -47 -426 -86 -435 -94 -13 -12 -13 -16 0 -28 16 -14 10 -15 760 126 162 31 175 35 178 56 3 20 -1 22 -40 21 -24 -1 -232 -37 -463 -81z"/>
    <path d="M2894 2595 c18 -47 104 -320 161 -510 53 -177 71 -225 92 -244 32 -28 23 -29 328 28 121 22 333 59 470 82 138 23 253 44 257 48 4 3 -136 6 -310 6 -308 1 -411 8 -507 37 l-40 12 60 8 c33 4 64 9 68 11 5 1 -31 18 -79 36 -100 37 -172 76 -224 121 l-35 29 98 1 c96 0 127 11 65 24 -93 18 -242 137 -324 256 -31 46 -54 70 -67 70 -13 0 -17 -5 -13 -15z"/>
    <path d="M3695 2596 c-129 -56 -123 -247 9 -307 54 -25 92 -24 141 4 56 32 85 79 85 139 0 67 -21 111 -71 147 -47 35 -109 41 -164 17z m-23 -101 c-5 -57 7 -98 40 -147 22 -32 18 -35 -18 -12 -52 35 -71 123 -39 184 9 17 17 30 19 30 1 0 1 -25 -2 -55z"/>
    <path d="M5483 6243 c-40 -104 -55 -176 -59 -288 l-5 -110 52 123 c29 69 56 119 61 114 8 -8 51 -175 63 -246 l6 -39 26 39 c37 55 105 136 110 131 2 -3 -14 -57 -35 -121 -32 -95 -37 -116 -23 -112 29 9 225 55 266 62 l40 7 -54 -61 c-29 -34 -75 -82 -102 -106 -44 -39 -46 -44 -22 -37 51 15 102 39 150 72 50 33 213 188 213 201 0 11 -209 9 -295 -2 -38 -5 -71 -7 -72 -6 -2 1 8 30 22 64 33 82 71 214 80 281 l7 53 -33 -18 c-19 -11 -81 -66 -139 -124 l-105 -105 -24 70 c-29 88 -87 215 -98 215 -4 0 -18 -26 -30 -57z"/>
  </g>
</svg>